<svg width="15" height="16" viewBox="0 0 15 16" fill="none" xmlns="http://www.w3.org/2000/svg">
<path fill-rule="evenodd" clip-rule="evenodd" d="M7.50004 1.83337C4.09428 1.83337 1.33337 4.59428 1.33337 8.00004C1.33337 11.4058 4.09428 14.1667 7.50004 14.1667C10.9058 14.1667 13.6667 11.4058 13.6667 8.00004C13.6667 4.59428 10.9058 1.83337 7.50004 1.83337ZM0.333374 8.00004C0.333374 4.042 3.542 0.833374 7.50004 0.833374C11.4581 0.833374 14.6667 4.042 14.6667 8.00004C14.6667 11.9581 11.4581 15.1667 7.50004 15.1667C3.542 15.1667 0.333374 11.9581 0.333374 8.00004ZM7.50004 4.83337C7.77618 4.83337 8.00004 5.05723 8.00004 5.33337V8.00004C8.00004 8.27618 7.77618 8.50004 7.50004 8.50004C7.2239 8.50004 7.00004 8.27618 7.00004 8.00004V5.33337C7.00004 5.05723 7.2239 4.83337 7.50004 4.83337ZM7.00004 10.6667C7.00004 10.3906 7.2239 10.1667 7.50004 10.1667H7.50671C7.78285 10.1667 8.00671 10.3906 8.00671 10.6667C8.00671 10.9428 7.78285 11.1667 7.50671 11.1667H7.50004C7.2239 11.1667 7.00004 10.9428 7.00004 10.6667Z" fill="#FF5959"/>
</svg>
